<?xml version="1.0" encoding="UTF-8" standalone="no"?>
    <!DOCTYPE svg PUBLIC "-//W3C//DTD SVG 1.1//EN" "http://www.w3.org/Graphics/SVG/1.1/DTD/svg11.dtd">
<svg height="100%" stroke-miterlimit="10" style="fill-rule:nonzero;clip-rule:evenodd;stroke-linecap:round;stroke-linejoin:round;" version="1.1" viewBox="0 0 96 120" width="100%" xml:space="preserve" xmlns="http://www.w3.org/2000/svg" xmlns:vectornator="http://vectornator.io" xmlns:xlink="http://www.w3.org/1999/xlink">
<defs/>
<path d="M1 13L1 107L95 107L95 13L1 13ZM77.955 46.523C81.77 46.523 84.876 49.627 84.876 53.442C84.876 57.257 81.771 60.362 77.955 60.362C74.139 60.362 71.036 57.258 71.036 53.442C71.036 49.626 74.14 46.523 77.955 46.523ZM87.944 73.097C87.755 73.341 87.472 73.477 87.17 73.477C86.951 73.477 86.737 73.403 86.566 73.269L65.314 56.644L44.062 73.269C43.653 73.588 43.006 73.512 42.686 73.101C42.354 72.678 42.429 72.062 42.852 71.729L54.14 62.9L35.436 50.214L9.403 68.782C8.988 69.082 8.34 68.978 8.035 68.553C7.883 68.34 7.824 68.08 7.868 67.823C7.912 67.564 8.054 67.339 8.266 67.187L34.851 48.225C35.176 47.994 35.632 47.986 35.967 48.211L55.758 61.63L64.708 54.63C65.042 54.363 65.571 54.36 65.916 54.633L87.77 71.728C88.192 72.06 88.27 72.674 87.944 73.097Z" fill="#000000" fill-rule="nonzero" opacity="1" stroke="none" vectornator:layerName="path"/>
</g>
</svg>
